# xmcd
#
# Track frame offsets:
#	150
#	19085
#	36004
#	52782
#	70273
#	85172
#	100380
#	116511
#	135517
#	154092
#	171354
#	190047
#	209397
#	228867
#
# Disc length: 3281 seconds
#
# Revision: 0
# Processed by: cddbd v1.5.2PL0 Copyright (c) Steve Scherf et al.
# Submitted via: audiograbber 1.83.01
#
DISCID=af0ccf0e
DTITLE=JonesTM - HC200812
DYEAR=2008
DGENRE=Country
TTITLE0=Jamey Johnson - In Color
TTITLE1=Rodney Atkins - Invisibly Shaken
TTITLE2=Kenny Chesney - Better As A Memory
TTITLE3=Ryan Bingham - Bread and Water [Radio Edit]
TTITLE4=Adam Gregory - Crazy Days [Single Version]
TTITLE5=Jason Meadows - Where Did My Dirt Road Go? [Radio Edit]
TTITLE6=Noel Gourdin - The River
TTITLE7=KeAnthony - I Ain't Tryna [Radio Edit]
TTITLE8=Dianne Reeves - Just My Imagination
TTITLE9=Ed Taylor With Peter White - Do What You've Got To Do [Album Version]
TTITLE10=Roy Meriwether - Me and Mrs. Jones [Album Version]
TTITLE11=Pieces Of A Dream - Pillow Talk [Album Version]
TTITLE12=Dwayne Kerr - Smooth [Album Version]
TTITLE13=Will Hedgecock - I Don't Know
EXTD=
EXTT0=
EXTT1=
EXTT2=
EXTT3=
EXTT4=
EXTT5=
EXTT6=
EXTT7=
EXTT8=
EXTT9=
EXTT10=
EXTT11=
EXTT12=
EXTT13=
PLAYORDER=
